<svg width="25" height="25" viewBox="0 0 25 25" fill="none" xmlns="http://www.w3.org/2000/svg">
<path d="M15.6769 5.20842C16.6943 5.40692 17.6294 5.90452 18.3624 6.63751C19.0954 7.37051 19.593 8.30557 19.7915 9.323M15.6769 1.04175C17.7907 1.27658 19.7619 2.22318 21.2667 3.72613C22.7716 5.22908 23.7207 7.19905 23.9582 9.31258M22.9165 17.6251V20.7501C22.9177 21.0402 22.8582 21.3273 22.742 21.5932C22.6258 21.859 22.4553 22.0976 22.2416 22.2937C22.0278 22.4898 21.7754 22.6391 21.5006 22.7321C21.2258 22.825 20.9346 22.8595 20.6457 22.8334C17.4403 22.4851 14.3613 21.3898 11.6561 19.6355C9.13923 18.0362 7.00539 15.9023 5.40608 13.3855C3.64564 10.668 2.55008 7.57403 2.20816 4.35425C2.18213 4.06619 2.21636 3.77587 2.30868 3.50177C2.401 3.22767 2.54938 2.9758 2.74438 2.76219C2.93937 2.54857 3.17671 2.3779 3.44128 2.26104C3.70585 2.14418 3.99185 2.08369 4.28108 2.08341H7.40608C7.91161 2.07844 8.40169 2.25745 8.785 2.58709C9.1683 2.91673 9.41866 3.37451 9.48941 3.87508C9.62131 4.87515 9.86592 5.85709 10.2186 6.80217C10.3587 7.175 10.3891 7.5802 10.306 7.96975C10.2229 8.3593 10.0299 8.71686 9.74983 9.00008L8.42691 10.323C9.90978 12.9309 12.0691 15.0901 14.6769 16.573L15.9998 15.2501C16.283 14.97 16.6406 14.777 17.0302 14.6939C17.4197 14.6109 17.8249 14.6412 18.1977 14.7813C19.1428 15.134 20.1248 15.3786 21.1248 15.5105C21.6308 15.5819 22.093 15.8368 22.4233 16.2266C22.7536 16.6165 22.9292 17.1142 22.9165 17.6251Z" stroke="white" stroke-width="2" stroke-linecap="round" stroke-linejoin="round"/>
</svg>
