<svg width="25" height="25" viewBox="0 0 25 25" fill="none" xmlns="http://www.w3.org/2000/svg">
<g clip-path="url(#clip0_93_254)">
<path d="M12.5 0C5.625 0 0 5.625 0 12.5C0 19.375 5.625 25 12.5 25C19.375 25 25 19.375 25 12.5C25 5.625 19.375 0 12.5 0ZM12.5 22.5C7 22.5 2.5 18 2.5 12.5C2.5 7 7 2.5 12.5 2.5C18 2.5 22.5 7 22.5 12.5C22.5 18 18 22.5 12.5 22.5Z" fill="white"/>
<path d="M13.125 6.25H11.25V13.75L17.75 17.75L18.75 16.125L13.125 12.75V6.25Z" fill="white"/>
</g>
<defs>
<clipPath id="clip0_93_254">
<rect width="25" height="25" fill="white"/>
</clipPath>
</defs>
</svg>
